<svg width="16" height="16" fill="none" xmlns="http://www.w3.org/2000/svg"><path fill-rule="evenodd" clip-rule="evenodd" d="M8.667 7.333V.667a.667.667 0 10-1.334 0v6.666H.667a.667.667 0 100 1.334h6.666v6.666a.667.667 0 001.334 0V8.667h6.666a.667.667 0 000-1.334H8.667z" fill="#000"/><mask id="a" style="mask-type:alpha" maskUnits="userSpaceOnUse" x="0" y="0" width="16" height="16"><path fill-rule="evenodd" clip-rule="evenodd" d="M8.667 7.333V.667a.667.667 0 10-1.334 0v6.666H.667a.667.667 0 100 1.334h6.666v6.666a.667.667 0 001.334 0V8.667h6.666a.667.667 0 000-1.334H8.667z" fill="#fff"/></mask><g mask="url(#a)"><path fill="#402258" d="M16 0v16H0V0z"/></g></svg>