<svg width="20" height="20" fill="none" xmlns="http://www.w3.org/2000/svg"><path d="M17.188 10h-.625a.313.313 0 00-.313.313v7.812a.624.624 0 01-.625.625H1.875a.625.625 0 01-.625-.625V4.375a.625.625 0 01.625-.625h7.813A.312.312 0 0010 3.437v-.624a.312.312 0 00-.313-.313H1.875A1.875 1.875 0 000 4.375v13.75A1.875 1.875 0 001.875 20h13.75a1.875 1.875 0 001.875-1.875v-7.813a.313.313 0 00-.313-.312zM19.53 0l-5.31.013a.469.469 0 00-.469.469v.39a.469.469 0 00.469.47l3.515-.014.028.028L5.137 13.979a.47.47 0 000 .664l.221.221a.47.47 0 00.664 0L18.644 2.24l.028.027-.013 3.516a.469.469 0 00.468.469h.391a.469.469 0 00.469-.47L20 .47a.469.469 0 00-.469-.47z" fill="#555"/></svg>