<svg width="45" height="30" viewBox="0 0 45 30" fill="none" xmlns="http://www.w3.org/2000/svg">
<path d="M42.6 0H2.4C1.07452 0 0 1.14068 0 2.54777V27.4522C0 28.8593 1.07452 30 2.4 30H42.6C43.9255 30 45 28.8593 45 27.4522V2.54777C45 1.14068 43.9255 0 42.6 0Z" fill="#151515"/>
<path d="M40.7936 16.9963C40.2049 16.9963 39.7276 17.4778 39.7276 18.072C39.7276 18.666 40.2049 19.1477 40.7936 19.1477C41.3824 19.1477 41.8597 18.666 41.8597 18.072C41.8597 17.4778 41.3824 16.9963 40.7936 16.9963ZM37.2863 16.1646C37.2863 15.3512 36.5973 14.692 35.7474 14.692C34.8975 14.692 34.2084 15.3513 34.2084 16.1646C34.2084 16.978 34.8974 17.6374 35.7474 17.6374C36.5974 17.6374 37.2863 16.978 37.2863 16.1646ZM37.292 13.3024H38.9904V19.0266H37.292V18.6608C36.8122 18.991 36.233 19.1851 35.6083 19.1851C33.9552 19.1851 32.615 17.8328 32.615 16.1646C32.615 14.4964 33.9552 13.1442 35.6083 13.1442C36.233 13.1442 36.8122 13.3383 37.292 13.6686V13.3024V13.3024ZM23.7 14.048V13.3025H21.9611V19.0266H23.7039V16.3541C23.7039 15.4524 24.6724 14.9678 25.3444 14.9678C25.3513 14.9678 25.3577 14.9684 25.3646 14.9685V13.3029C24.6749 13.3029 24.0405 13.6009 23.7 14.0481L23.7 14.048ZM19.3684 16.1646C19.3684 15.3512 18.6794 14.692 17.8294 14.692C16.9795 14.692 16.2904 15.3513 16.2904 16.1646C16.2904 16.978 16.9795 17.6374 17.8294 17.6374C18.6794 17.6374 19.3684 16.978 19.3684 16.1646ZM19.374 13.3024H21.0725V19.0266H19.374V18.6608C18.8942 18.991 18.315 19.1851 17.6904 19.1851C16.0372 19.1851 14.697 17.8328 14.697 16.1646C14.697 14.4964 16.0372 13.1442 17.6904 13.1442C18.3151 13.1442 18.8942 13.3383 19.374 13.6686V13.3024V13.3024ZM29.597 13.1485C28.9186 13.1485 28.2764 13.361 27.8471 13.9474V13.3028H26.156V19.0267H27.8679V16.0186C27.8679 15.1481 28.4464 14.7219 29.1429 14.7219C29.8894 14.7219 30.3185 15.1718 30.3185 16.0068V19.0267H32.0149V15.3866C32.0149 14.0545 30.9653 13.1486 29.597 13.1486V13.1485ZM12.223 19.0267H14.0007V10.7516H12.223V19.0267ZM4.41394 19.0289H6.29634V10.75H4.41394V19.0289ZM10.9979 10.75C10.9979 12.5423 10.3058 14.2096 9.07234 15.4489L11.6743 19.0292H9.34934L6.52154 15.1382L7.25135 14.5867C8.46165 13.6719 9.15585 12.2735 9.15585 10.75H10.998L10.9979 10.75Z" fill="white"/>
</svg>
