<svg width="45" height="30" viewBox="0 0 45 30" fill="none" xmlns="http://www.w3.org/2000/svg">
<path d="M42.6 0H2.4C1.07452 0 0 1.14068 0 2.54777V27.4522C0 28.8593 1.07452 30 2.4 30H42.6C43.9255 30 45 28.8593 45 27.4522V2.54777C45 1.14068 43.9255 0 42.6 0Z" fill="#0E4595"/>
<path fill-rule="evenodd" clip-rule="evenodd" d="M16.6918 21.0536L18.6934 9.30792H21.895L19.8919 21.0536H16.6918Z" fill="white"/>
<path fill-rule="evenodd" clip-rule="evenodd" d="M31.4584 9.56125C30.8241 9.32329 29.8302 9.06793 28.589 9.06793C25.4256 9.06793 23.1972 10.661 23.1782 12.9442C23.1604 14.6319 24.7691 15.5734 25.9835 16.1353C27.2296 16.711 27.6486 17.0782 27.6426 17.5923C27.6347 18.3796 26.6475 18.7393 25.7273 18.7393C24.4458 18.7393 23.7651 18.5613 22.7137 18.1227L22.3011 17.936L21.8518 20.5654C22.5996 20.8933 23.9823 21.1774 25.4181 21.1921C28.7834 21.1921 30.9681 19.6173 30.993 17.1792C31.005 15.843 30.1521 14.8261 28.305 13.9879C27.186 13.4445 26.5007 13.0819 26.5079 12.5317C26.5079 12.0435 27.088 11.5215 28.3413 11.5215C29.3883 11.5052 30.1466 11.7335 30.7375 11.9715L31.0244 12.107L31.4584 9.56125Z" fill="white"/>
<path fill-rule="evenodd" clip-rule="evenodd" d="M39.697 9.30792H37.2232C36.4568 9.30792 35.8833 9.51708 35.5467 10.282L30.792 21.0461H34.1539C34.1539 21.0461 34.7036 19.5988 34.8279 19.2811C35.1953 19.2811 38.4611 19.2861 38.9281 19.2861C39.0238 19.6973 39.3176 21.0461 39.3176 21.0461H42.2883L39.697 9.30792ZM35.772 16.8923C36.0368 16.2156 37.0475 13.609 37.0475 13.609C37.0286 13.6402 37.3103 12.9289 37.472 12.4879L37.6885 13.5006C37.6885 13.5006 38.3015 16.3043 38.4296 16.8923H35.772V16.8923Z" fill="white"/>
<path fill-rule="evenodd" clip-rule="evenodd" d="M13.9742 9.30792L10.8398 17.3176L10.5058 15.6899C9.92234 13.8134 8.10434 11.7805 6.0719 10.7627L8.93792 21.0349L12.3252 21.031L17.3655 9.30792H13.9742Z" fill="white"/>
<path fill-rule="evenodd" clip-rule="evenodd" d="M7.91517 9.30792H2.75271L2.71185 9.5523C6.72819 10.5245 9.38577 12.8741 10.4889 15.6971L9.36639 10.2995C9.17259 9.55578 8.61051 9.33384 7.91517 9.30792Z" fill="#F2AE14"/>
</svg>
