<svg width="45" height="30" viewBox="0 0 45 30" fill="none" xmlns="http://www.w3.org/2000/svg">
<path d="M42.6 0H2.4C1.07452 0 0 1.14068 0 2.54777V27.4522C0 28.8593 1.07452 30 2.4 30H42.6C43.9255 30 45 28.8593 45 27.4522V2.54777C45 1.14068 43.9255 0 42.6 0Z" fill="#F4F4F4"/>
<path fill-rule="evenodd" clip-rule="evenodd" d="M37.8243 25.8126C37.7501 25.8144 37.689 25.839 37.641 25.8864C37.5929 25.9338 37.5681 25.9932 37.5664 26.0644C37.5681 26.1351 37.5929 26.1943 37.641 26.242C37.689 26.2896 37.7501 26.3144 37.8243 26.3163C37.8967 26.3144 37.9571 26.2896 38.0052 26.242C38.0534 26.1943 38.0784 26.1351 38.0803 26.0644C38.0785 25.9932 38.0535 25.9338 38.0055 25.8864C37.9574 25.839 37.897 25.8144 37.8243 25.8126ZM37.8243 26.2607C37.7678 26.2593 37.7212 26.2402 37.6845 26.2033C37.6478 26.1664 37.6288 26.1201 37.6275 26.0644C37.6288 26.0085 37.6478 25.9622 37.6845 25.9256C37.7212 25.889 37.7678 25.8701 37.8243 25.8687C37.8796 25.8701 37.9255 25.889 37.9619 25.9256C37.9983 25.9622 38.0172 26.0085 38.0186 26.0644C38.0172 26.1201 37.9983 26.1664 37.9619 26.2033C37.9255 26.2402 37.8796 26.2593 37.8243 26.2607ZM37.8391 25.9465H37.7311V26.1805H37.7811V26.0928H37.8039L37.8749 26.1805H37.9347L37.8582 26.0922C37.8821 26.0892 37.9005 26.0814 37.9133 26.069C37.9262 26.0565 37.9327 26.0406 37.9328 26.0212C37.9327 25.9981 37.9245 25.9799 37.9084 25.9667C37.8923 25.9535 37.8692 25.9468 37.8391 25.9465ZM37.8385 25.9903C37.8519 25.9903 37.8624 25.9929 37.87 25.9981C37.8776 26.0033 37.8815 26.011 37.8816 26.0212C37.8815 26.0317 37.8776 26.0396 37.87 26.0448C37.8624 26.0501 37.8519 26.0527 37.8385 26.0527H37.7811V25.9903H37.8385Z" fill="black"/>
<path fill-rule="evenodd" clip-rule="evenodd" d="M9.79609 26.1558H9.26074V23.656H9.78559V23.9606C9.78559 23.9606 10.2466 23.5883 10.5204 23.5929C11.0527 23.602 11.3706 24.0551 11.3706 24.0551C11.3706 24.0551 11.6285 23.5929 12.2104 23.5929C13.0709 23.5929 13.1971 24.3807 13.1971 24.3807V26.1453H12.6828V24.5908C12.6828 24.5908 12.6846 24.1181 12.1264 24.1181C11.5492 24.1181 11.4966 24.5908 11.4966 24.5908V26.1453H10.9613V24.5803C10.9613 24.5803 10.9098 24.0866 10.4259 24.0866C9.79741 24.0866 9.78559 24.5908 9.78559 24.5908L9.79609 26.1558Z" fill="black"/>
<path fill-rule="evenodd" clip-rule="evenodd" d="M26.0767 23.5925C25.8029 23.5879 25.3419 23.9601 25.3419 23.9601V23.6562H24.8165V26.1555H25.3522L25.3419 24.5906C25.3419 24.5906 25.3538 24.0874 25.9823 24.0874C26.099 24.0874 26.1896 24.1157 26.2614 24.1593V24.1573L26.4358 23.6706C26.3306 23.6262 26.2109 23.5948 26.0767 23.5925Z" fill="black"/>
<path fill-rule="evenodd" clip-rule="evenodd" d="M33.6177 23.5925C33.3439 23.5879 32.8829 23.9601 32.8829 23.9601V23.6562H32.3575V26.1555H32.8932L32.8829 24.5906C32.8829 24.5906 32.8948 24.0874 33.5233 24.0874C33.64 24.0874 33.7307 24.1157 33.8024 24.1593V24.1573L33.9769 23.6706C33.8716 23.6262 33.7519 23.5948 33.6177 23.5925V23.5925Z" fill="black"/>
<path fill-rule="evenodd" clip-rule="evenodd" d="M14.9279 23.5823C14.1267 23.5823 13.7027 24.3029 13.7006 24.9049C13.6984 25.5219 14.1832 26.2336 14.9505 26.2336C15.398 26.2336 15.7657 25.903 15.7657 25.903L15.7648 26.1576H16.2917V23.6553H15.7629V23.9705C15.7629 23.9705 15.4176 23.5823 14.9279 23.5823H14.9279ZM15.0305 24.0916C15.461 24.0916 15.8104 24.4663 15.8104 24.9275C15.8104 25.3886 15.461 25.7613 15.0305 25.7613C14.6 25.7613 14.2527 25.3886 14.2527 24.9275C14.2527 24.4663 14.6 24.0916 15.0305 24.0916Z" fill="black"/>
<path fill-rule="evenodd" clip-rule="evenodd" d="M30.2956 23.5823C29.4944 23.5823 29.0704 24.3029 29.0682 24.9049C29.066 25.5219 29.5509 26.2336 30.3181 26.2336C30.7657 26.2336 31.1334 25.903 31.1334 25.903L31.1324 26.1576H31.6594V23.6553H31.1306V23.9705C31.1306 23.9705 30.7853 23.5823 30.2956 23.5823H30.2956ZM30.3982 24.0916C30.8286 24.0916 31.1781 24.4663 31.1781 24.9275C31.1781 25.3886 30.8286 25.7613 30.3982 25.7613C29.9677 25.7613 29.6203 25.3886 29.6203 24.9275C29.6203 24.4663 29.9677 24.0916 30.3982 24.0916Z" fill="black"/>
<path fill-rule="evenodd" clip-rule="evenodd" d="M35.3554 23.5823C34.5542 23.5823 34.1302 24.3028 34.1281 24.9048C34.1259 25.5219 34.6107 26.2335 35.3779 26.2335C35.8255 26.2335 36.1932 25.9029 36.1932 25.9029L36.1923 26.1575H36.7192V22.6674H36.1904V23.9704C36.1904 23.9704 35.8451 23.5823 35.3554 23.5823H35.3554ZM35.458 24.0916C35.8884 24.0916 36.2379 24.4662 36.2379 24.9274C36.2379 25.3886 35.8884 25.7612 35.458 25.7612C35.0275 25.7612 34.6801 25.3886 34.6801 24.9274C34.6801 24.4662 35.0275 24.0916 35.458 24.0916Z" fill="black"/>
<path fill-rule="evenodd" clip-rule="evenodd" d="M17.8998 26.2397C17.354 26.2397 16.8501 25.9036 16.8501 25.9036L17.081 25.5465C17.081 25.5465 17.5578 25.7671 17.8998 25.7671C18.122 25.7671 18.4936 25.6953 18.4981 25.473C18.5029 25.238 17.8736 25.1684 17.8736 25.1684C17.8736 25.1684 16.9341 25.1555 16.9341 24.3806C16.9341 23.8932 17.4033 23.5823 18.0048 23.5823C18.3523 23.5823 19.002 23.8869 19.002 23.8869L18.7396 24.2966C18.7396 24.2966 18.2379 24.096 17.9733 24.0865C17.7498 24.0784 17.4799 24.1855 17.4799 24.3806C17.4799 24.9106 19.044 24.3393 19.044 25.41C19.044 26.1123 18.407 26.2397 17.8998 26.2397Z" fill="black"/>
<path fill-rule="evenodd" clip-rule="evenodd" d="M19.9136 22.9313V23.6583H19.4478V24.1841H19.9136V25.4409C19.9136 25.4409 19.8724 26.2911 20.7859 26.2911C21.0385 26.2911 21.533 26.1042 21.533 26.1042L21.3216 25.5579C21.3216 25.5579 21.1249 25.7258 20.9029 25.7202C20.4807 25.7095 20.4924 25.4388 20.4924 25.4388V24.1841H21.3626V23.6583H20.4924V22.9313H19.9136Z" fill="black"/>
<path fill-rule="evenodd" clip-rule="evenodd" d="M23.0845 23.6131C22.2254 23.6131 21.7962 24.3211 21.7997 24.9356C21.8033 25.5676 22.1906 26.2787 23.1358 26.2787C23.5404 26.2787 24.1086 25.9234 24.1086 25.9234L23.8644 25.4983C23.8644 25.4983 23.4766 25.7735 23.1358 25.7735C22.4534 25.7735 22.4093 25.1061 22.4093 25.1061H24.2359C24.2359 25.1061 24.3721 23.6131 23.0845 23.6131ZM23.0065 24.1039C23.0267 24.1028 23.0485 24.1039 23.0701 24.1039C23.713 24.1039 23.7084 24.7118 23.7084 24.7118H22.4093C22.4093 24.7118 22.3785 24.1396 23.0065 24.1039Z" fill="black"/>
<path fill-rule="evenodd" clip-rule="evenodd" d="M28.5174 25.4919L28.7624 25.9821C28.7624 25.9821 28.3742 26.2346 27.9385 26.2346C27.0365 26.2346 26.5356 25.5553 26.5356 24.9126C26.5356 23.9024 27.3327 23.6054 27.8717 23.6054C28.3609 23.6054 28.7847 23.8876 28.7847 23.8876L28.51 24.3778C28.51 24.3778 28.3435 24.1179 27.8568 24.1179C27.371 24.1179 27.1146 24.537 27.1146 24.9349C27.1146 25.3807 27.413 25.7593 27.8643 25.7593C28.2183 25.7593 28.5174 25.4919 28.5174 25.4919Z" fill="black"/>
<path fill-rule="evenodd" clip-rule="evenodd" d="M38.1866 17.0377V16.7001H38.0986L37.9972 16.9323L37.8959 16.7001H37.8078V17.0377H37.87V16.7831L37.965 17.0026H38.0295L38.1245 16.7825V17.0377H38.1866ZM37.6288 17.0377V16.7577H37.7416V16.7007H37.4543V16.7577H37.5672V17.0377H37.6288Z" fill="#F79F1A"/>
<path fill-rule="evenodd" clip-rule="evenodd" d="M38.204 12.0191C38.204 17.2425 33.9802 21.477 28.7699 21.477C23.5595 21.477 19.3357 17.2425 19.3357 12.0191C19.3357 6.79561 23.5595 2.56116 28.7699 2.56116C33.9802 2.56116 38.204 6.79561 38.204 12.0191Z" fill="#F79F1A"/>
<path fill-rule="evenodd" clip-rule="evenodd" d="M26.5653 12.0194C26.5653 17.2429 22.3415 21.4774 17.1312 21.4774C11.9208 21.4774 7.69702 17.2429 7.69702 12.0194C7.69702 6.79598 11.9208 2.56152 17.1312 2.56152C22.3415 2.56152 26.5653 6.79598 26.5653 12.0194Z" fill="#EA001B"/>
<path fill-rule="evenodd" clip-rule="evenodd" d="M22.9509 4.57385C20.7497 6.30529 19.3367 8.99584 19.3367 12.0183C19.3367 15.0408 20.7497 17.7334 22.9509 19.4648C25.1521 17.7334 26.5651 15.0408 26.5651 12.0183C26.5651 8.99584 25.1521 6.30529 22.9509 4.57385Z" fill="#FF5F01"/>
</svg>
